<mxfile host="app.diagrams.net" agent="Mozilla/5.0 (Windows NT 10.0; Win64; x64) AppleWebKit/537.36 (KHTML, like Gecko) Chrome/131.0.0.0 Safari/537.36" version="25.0.3">
  <diagram name="Page-1" id="Tjc17NIXH_0gy2ZELR0H">
    <mxGraphModel dx="1221" dy="731" grid="1" gridSize="10" guides="1" tooltips="1" connect="1" arrows="1" fold="1" page="1" pageScale="1" pageWidth="850" pageHeight="1100" math="0" shadow="0">
      <root>
        <mxCell id="0" />
        <mxCell id="1" parent="0" />
        <mxCell id="stCPFP1H5lYTBOyLpdsh-2" style="edgeStyle=orthogonalEdgeStyle;rounded=0;orthogonalLoop=1;jettySize=auto;html=1;" edge="1" parent="1" source="stCPFP1H5lYTBOyLpdsh-1" target="stCPFP1H5lYTBOyLpdsh-3">
          <mxGeometry relative="1" as="geometry">
            <mxPoint x="520" y="220" as="targetPoint" />
          </mxGeometry>
        </mxCell>
        <mxCell id="stCPFP1H5lYTBOyLpdsh-10" style="edgeStyle=orthogonalEdgeStyle;rounded=0;orthogonalLoop=1;jettySize=auto;html=1;exitX=0.5;exitY=1;exitDx=0;exitDy=0;entryX=0;entryY=0.5;entryDx=0;entryDy=0;" edge="1" parent="1" source="stCPFP1H5lYTBOyLpdsh-1" target="stCPFP1H5lYTBOyLpdsh-8">
          <mxGeometry relative="1" as="geometry" />
        </mxCell>
        <mxCell id="stCPFP1H5lYTBOyLpdsh-1" value="HEAD" style="rounded=0;whiteSpace=wrap;html=1;" vertex="1" parent="1">
          <mxGeometry x="50" y="190" width="120" height="60" as="geometry" />
        </mxCell>
        <mxCell id="stCPFP1H5lYTBOyLpdsh-3" value="DATA" style="rounded=0;whiteSpace=wrap;html=1;" vertex="1" parent="1">
          <mxGeometry x="460" y="210" width="50" height="20" as="geometry" />
        </mxCell>
        <mxCell id="stCPFP1H5lYTBOyLpdsh-12" style="edgeStyle=orthogonalEdgeStyle;rounded=0;orthogonalLoop=1;jettySize=auto;html=1;exitX=1;exitY=0.5;exitDx=0;exitDy=0;" edge="1" parent="1" source="stCPFP1H5lYTBOyLpdsh-4">
          <mxGeometry relative="1" as="geometry">
            <mxPoint x="660" y="220" as="targetPoint" />
          </mxGeometry>
        </mxCell>
        <mxCell id="stCPFP1H5lYTBOyLpdsh-4" value="ADDRESS" style="rounded=0;whiteSpace=wrap;html=1;" vertex="1" parent="1">
          <mxGeometry x="510" y="210" width="70" height="20" as="geometry" />
        </mxCell>
        <mxCell id="stCPFP1H5lYTBOyLpdsh-8" value="DATA" style="rounded=0;whiteSpace=wrap;html=1;" vertex="1" parent="1">
          <mxGeometry x="150" y="380" width="50" height="20" as="geometry" />
        </mxCell>
        <mxCell id="stCPFP1H5lYTBOyLpdsh-11" style="edgeStyle=orthogonalEdgeStyle;rounded=0;orthogonalLoop=1;jettySize=auto;html=1;exitX=1;exitY=0.5;exitDx=0;exitDy=0;" edge="1" parent="1" source="stCPFP1H5lYTBOyLpdsh-9">
          <mxGeometry relative="1" as="geometry">
            <mxPoint x="420" y="220" as="targetPoint" />
          </mxGeometry>
        </mxCell>
        <mxCell id="stCPFP1H5lYTBOyLpdsh-9" value="ADDRESS" style="rounded=0;whiteSpace=wrap;html=1;" vertex="1" parent="1">
          <mxGeometry x="200" y="380" width="70" height="20" as="geometry" />
        </mxCell>
        <mxCell id="stCPFP1H5lYTBOyLpdsh-13" value="DATA" style="rounded=0;whiteSpace=wrap;html=1;" vertex="1" parent="1">
          <mxGeometry x="660" y="210" width="50" height="20" as="geometry" />
        </mxCell>
        <mxCell id="stCPFP1H5lYTBOyLpdsh-14" value="NULL" style="rounded=0;whiteSpace=wrap;html=1;" vertex="1" parent="1">
          <mxGeometry x="710" y="210" width="70" height="20" as="geometry" />
        </mxCell>
        <mxCell id="stCPFP1H5lYTBOyLpdsh-15" value="NEW CODE" style="text;html=1;align=center;verticalAlign=middle;resizable=0;points=[];autosize=1;strokeColor=none;fillColor=none;" vertex="1" parent="1">
          <mxGeometry x="170" y="340" width="90" height="30" as="geometry" />
        </mxCell>
        <mxCell id="stCPFP1H5lYTBOyLpdsh-16" value="&amp;nbsp;NEW LINK" style="text;html=1;align=center;verticalAlign=middle;resizable=0;points=[];autosize=1;strokeColor=none;fillColor=none;" vertex="1" parent="1">
          <mxGeometry x="75" y="400" width="80" height="30" as="geometry" />
        </mxCell>
        <mxCell id="stCPFP1H5lYTBOyLpdsh-17" value="ptr" style="text;html=1;align=center;verticalAlign=middle;resizable=0;points=[];autosize=1;strokeColor=none;fillColor=none;" vertex="1" parent="1">
          <mxGeometry x="210" y="410" width="40" height="30" as="geometry" />
        </mxCell>
        <mxCell id="stCPFP1H5lYTBOyLpdsh-18" value="ptr -&amp;gt; next = head&lt;div&gt;head = ptr&lt;/div&gt;" style="text;html=1;align=center;verticalAlign=middle;resizable=0;points=[];autosize=1;strokeColor=none;fillColor=none;" vertex="1" parent="1">
          <mxGeometry x="365" y="395" width="120" height="40" as="geometry" />
        </mxCell>
      </root>
    </mxGraphModel>
  </diagram>
</mxfile>
